Results
version=1
nRows=26
nColumns=24
inDegrees=yes
endheader
time	pelvis_tilt	pelvis_list	pelvis_rotation	pelvis_tx	pelvis_ty	pelvis_tz	hip_flexion_r	hip_adduction_r	hip_rotation_r	knee_angle_r	ankle_angle_r	subtalar_angle_r	mtp_angle_r	hip_flexion_l	hip_adduction_l	hip_rotation_l	knee_angle_l	ankle_angle_l	subtalar_angle_l	mtp_angle_l	lumbar_extension	lumbar_bending	lumbar_rotation
      1.43716667	     -6.35402776	      2.70945129	     -4.32458430	      0.43134936	      1.06836224	      0.25591179	     23.90140091	     -4.88764269	     -2.38839176	    -63.89443368	      2.79377955	     -3.99226464	      8.70245464	     12.15188970	      4.25428787	      2.16882650	     -9.39716976	      4.34191879	     -1.99478752	      3.74625443	    -13.09708946	     -6.77194767	     -2.32175018
      1.44133333	     -6.34551088	      2.59717326	     -4.20854107	      0.43625495	      1.06896215	      0.25543608	     24.23601943	     -4.76227116	     -2.57112641	    -63.21070221	      3.06923483	     -3.82886476	      8.74509989	     11.67456698	      4.19172104	      2.32727684	     -9.03570220	      4.36130793	     -1.99085640	      3.74103394	    -13.06012112	     -6.60079324	     -2.38830742
      1.44550000	     -6.32955021	      2.52842715	     -4.10689407	      0.44114556	      1.06949342	      0.25498305	     24.57552988	     -4.68593657	     -2.73358844	    -62.53500994	      3.36347132	     -3.66030329	      8.83564550	     11.15811209	      4.17900362	      2.58932073	     -8.59714173	      4.31554592	     -2.18233438	      3.72291540	    -13.04367041	     -6.45945199	     -2.58067209
      1.44966667	     -6.33106045	      2.43095621	     -3.99785581	      0.44602223	      1.06996163	      0.25453468	     24.91453204	     -4.57862284	     -2.91019210	    -61.81402640	      3.61306242	     -3.54549121	      8.86765265	     10.70336826	      4.12568961	      2.73434910	     -8.25646083	      4.37151935	     -2.16509337	      3.71803434	    -12.99866959	     -6.30594768	     -2.61743740
      1.45383333	     -6.31017968	      2.35524781	     -3.89902339	      0.45087455	      1.07041499	      0.25410088	     25.23294653	     -4.49784379	     -3.07678674	    -61.08677121	      3.85940727	     -3.42841591	      8.92251302	     10.19712550	      4.09989462	      2.97851531	     -7.84915085	      4.38420692	     -2.31773963	      3.70309940	    -12.99462918	     -6.15840645	     -2.78293820
      1.45800000	     -6.32417116	      2.26250923	     -3.79556686	      0.45573224	      1.07078682	      0.25367964	     25.57139397	     -4.39398891	     -3.24678194	    -60.31997742	      4.07838344	     -3.39778568	      8.96489953	      9.74694777	      4.04812468	      3.17977074	     -7.48356654	      4.40348309	     -2.41047481	      3.68908003	    -12.93799458	     -6.00289210	     -2.87406108
      1.46216667	     -6.34498941	      2.18714426	     -3.71193477	      0.46056287	      1.07107010	      0.25331611	     25.92391920	     -4.29925708	     -3.39185757	    -59.55406803	      4.31947394	     -3.41098309	      8.97777477	      9.32207641	      4.00456993	      3.28082676	     -7.14799892	      4.44677780	     -2.36171614	      3.68610482	    -12.87898652	     -5.87216632	     -2.89811290
      1.46633333	     -6.33628331	      2.10282778	     -3.60513129	      0.46538125	      1.07138911	      0.25290868	     26.22270008	     -4.21312662	     -3.56893666	    -58.74468769	      4.49189023	     -3.41626417	      9.00575889	      8.84841014	      3.96308387	      3.54638091	     -6.78010499	      4.46629105	     -2.57575665	      3.66971003	    -12.85537795	     -5.72419009	     -3.07705623
      1.47050000	     -6.36735034	      2.01934620	     -3.51478166	      0.47018194	      1.07159198	      0.25256325	     26.56234522	     -4.11149388	     -3.72105808	    -57.92229750	      4.70814429	     -3.47467490	      9.01566032	      8.45090252	      3.90788422	      3.66632667	     -6.47698199	      4.49823147	     -2.58524142	      3.66311058	    -12.78428681	     -5.59392912	     -3.10581709
      1.47466667	     -6.38326896	      1.95151082	     -3.42884242	      0.47496445	      1.07176757	      0.25222583	     26.88577425	     -4.02924186	     -3.86540232	    -57.09037671	      4.84134214	     -3.58929092	      9.02491242	      8.01190402	      3.87268992	      3.89988784	     -6.11798003	      4.53372070	     -2.76373845	      3.64708276	    -12.73517056	     -5.46653407	     -3.23989039
      1.47883333	     -6.40920598	      1.89265802	     -3.34913102	      0.47971800	      1.07186664	      0.25192137	     27.21741204	     -3.95202780	     -3.99955913	    -56.24834462	      5.01375891	     -3.70280745	      9.02709922	      7.60494765	      3.84145410	      4.07067868	     -5.79798247	      4.57040797	     -2.86737329	      3.63237079	    -12.67841368	     -5.36131250	     -3.30992745
      1.48300000	     -6.44442838	      1.82456017	     -3.26804213	      0.48446226	      1.07193449	      0.25163519	     27.54447740	     -3.86189642	     -4.13157162	    -55.37650293	      5.18449925	     -3.83771867	      9.02355704	      7.22925838	      3.79597934	      4.18926462	     -5.52343011	      4.62533188	     -2.89399574	      3.62524040	    -12.61162957	     -5.25151354	     -3.34446835
      1.48716667	     -6.45915584	      1.77411612	     -3.20056233	      0.48917577	      1.07198287	      0.25139261	     27.85233155	     -3.78221934	     -4.23769420	    -54.49855390	      5.28893779	     -4.05736739	      9.00551950	      6.80811481	      3.76890569	      4.39680888	     -5.19393176	      4.65531958	     -3.06718495	      3.60617652	    -12.57904743	     -5.15956631	     -3.45632103
      1.49133333	     -6.51128342	      1.70720536	     -3.12349927	      0.49389563	      1.07193195	      0.25114283	     28.18371526	     -3.69041102	     -4.36446098	    -53.59543070	      5.42590532	     -4.21346222	      8.99425659	      6.46430692	      3.71955448	      4.50456386	     -4.94590275	      4.74331687	     -3.08483707	      3.60082587	    -12.49317785	     -5.05037645	     -3.47395278
      1.49550000	     -6.53527807	      1.65106311	     -3.05271645	      0.49857966	      1.07190056	      0.25092760	     28.48069467	     -3.60296371	     -4.46905689	    -52.67643994	      5.52245994	     -4.43998685	      8.97690135	      6.08852584	      3.68077767	      4.63377647	     -4.68837870	      4.82323673	     -3.13464768	      3.59473499	    -12.44916740	     -4.95502572	     -3.52136726
      1.49966667	     -6.55737518	      1.61743117	     -2.99474949	      0.50324267	      1.07180229	      0.25075600	     28.78181503	     -3.53207480	     -4.55221571	    -51.76196356	      5.56828832	     -4.70915842	      8.94445636	      5.69932320	      3.66349331	      4.80428416	     -4.40253235	      4.89709239	     -3.26555391	      3.58347502	    -12.41110763	     -4.89176752	     -3.60249767
      1.50383333	     -6.60140372	      1.58015746	     -2.92801767	      0.50789545	      1.07163472	      0.25058278	     29.09319232	     -3.45801294	     -4.63740412	    -50.82850327	      5.67998207	     -4.91372274	      8.92167322	      5.36181601	      3.64032371	      4.92130218	     -4.17588305	      4.97555502	     -3.31790887	      3.57721532	    -12.35020076	     -4.82158691	     -3.63153979
      1.50800000	     -6.64963142	      1.55906203	     -2.87459026	      0.51252901	      1.07141473	      0.25046473	     29.41198079	     -3.38764062	     -4.69277076	    -49.89317058	      5.72465880	     -5.20304383	      8.86836913	      5.01105147	      3.63074166	      5.09966974	     -3.90703098	      5.03076735	     -3.47805538	      3.56102613	    -12.29325459	     -4.78346726	     -3.70684361
      1.51216667	     -6.67624999	      1.54168099	     -2.81734321	      0.51715175	      1.07119296	      0.25034013	     29.69885486	     -3.32815826	     -4.75759407	    -48.94369561	      5.76525003	     -5.42770446	      8.83000135	      4.65781803	      3.62584585	      5.22038698	     -3.68244955	      5.13808099	     -3.54273659	      3.55252382	    -12.25178606	     -4.74196870	     -3.73531992
      1.51633333	     -6.71952610	      1.51856898	     -2.75708189	      0.52177179	      1.07091504	      0.25023396	     29.99116981	     -3.25777988	     -4.81428833	    -47.97720632	      5.83240421	     -5.63795579	      8.80332685	      4.33535455	      3.61199209	      5.32536950	     -3.48611329	      5.24230335	     -3.58014624	      3.54784966	    -12.19565745	     -4.69482477	     -3.75600428
      1.52050000	     -6.76705793	      1.52309357	     -2.71002785	      0.52636681	      1.07057565	      0.25018326	     30.29609846	     -3.20192047	     -4.83356880	    -47.01909170	      5.84341420	     -5.91064063	      8.74877624	      4.00141687	      3.62421128	      5.48442201	     -3.24968773	      5.32004488	     -3.71571647	      3.53460428	    -12.15049452	     -4.69180079	     -3.81183379
      1.52466667	     -6.80201944	      1.51248925	     -2.65236259	      0.53097651	      1.07023360	      0.25010464	     30.57031801	     -3.14317051	     -4.88216994	    -46.04174017	      5.89358441	     -6.07345574	      8.72476414	      3.67585195	      3.62124723	      5.58026984	     -3.06371893	      5.44356348	     -3.74624014	      3.53108779	    -12.10945551	     -4.66109037	     -3.82194738
      1.52883333	     -6.83956841	      1.50902666	     -2.60342645	      0.53557766	      1.06985126	      0.25007006	     30.84241053	     -3.07855583	     -4.89922673	    -45.05385793	      5.91040364	     -6.27182162	      8.69945466	      3.34986553	      3.62290251	      5.68887027	     -2.87087282	      5.56074850	     -3.79664381	      3.52745091	    -12.07028318	     -4.64587970	     -3.84353335
      1.53300000	     -6.86573006	      1.54821482	     -2.56345633	      0.54013690	      1.06941850	      0.25007811	     31.11757917	     -3.05012517	     -4.88269699	    -44.08975272	      5.90007792	     -6.48426450	      8.64592638	      3.00038351	      3.66904382	      5.86104453	     -2.64652188	      5.63305415	     -3.97454866	      3.51204923	    -12.05045602	     -4.68946301	     -3.89451284
      1.53716667	     -6.90854388	      1.55678554	     -2.50971696	      0.54474130	      1.06895641	      0.25004695	     31.38468389	     -3.00188025	     -4.89903337	    -43.09569099	      5.94465317	     -6.56137800	      8.62966519	      2.69203583	      3.68241476	      5.95407393	     -2.47932321	      5.76933451	     -3.99407941	      3.50979282	    -12.00512628	     -4.68224605	     -3.89913518
      1.54133333	     -6.93847449	      1.58122634	     -2.46411951	      0.54932529	      1.06846574	      0.25005704	     31.64035209	     -2.96058070	     -4.88938427	    -42.10536956	      5.95006309	     -6.67819089	      8.61123593	      2.36440946	      3.71039620	      6.06449859	     -2.29826085	      5.89405526	     -4.05551509	      3.50539882	    -11.98799050	     -4.70403792	     -3.91798909
